<svg width="32" height="32" viewBox="0 0 32 32" fill="none" xmlns="http://www.w3.org/2000/svg">
  <rect width="32" height="32" rx="7" fill="#6366F1"/>
  <g transform="translate(3, 3.7) scale(0.65)">
    <path d="M18.7357 37.1127C20.8454 37.1127 22.7768 36.3187 24.1736 34.8766C25.5627 33.442 26.3286 31.4565 26.3286 29.2852H23.0879C23.0879 30.6096 22.6472 31.7946 21.8457 32.6221C21.0539 33.4398 19.978 33.8719 18.7357 33.8719C16.2469 33.8719 14.3695 31.9923 14.3695 29.5012H11.1288C11.1288 31.585 11.9109 33.5122 13.3314 34.9274C14.7454 36.336 16.6649 37.1127 18.7347 37.1127H18.7357Z" fill="white"/>
    <path d="M23.0876 29.2889L26.3286 29.2792C26.3178 25.5987 24.8378 22.1614 22.1629 19.6011C19.5766 17.1252 16.098 15.7867 12.6193 15.9304C9.25736 16.0676 6.09634 17.5216 3.71639 20.0235C1.32455 22.5384 0.00440025 25.8267 7.82013e-05 29.2824L3.24104 29.2868C3.24753 23.9222 7.5148 19.3829 12.7522 19.169C15.3536 19.061 17.9691 20.0732 19.9223 21.9431C21.9555 23.8887 23.0801 26.4986 23.0887 29.2889H23.0876Z" fill="white"/>
    <path d="M34.2144 29.5056L37.4553 29.4959C37.4445 25.8154 35.9645 22.378 33.2896 19.8178C30.7033 17.3418 27.2247 16.0045 23.746 16.1471C20.3841 16.2843 17.223 17.7383 14.8431 20.2402C12.4513 22.755 11.1311 26.0433 11.1268 29.4991L14.3678 29.5034C14.3742 24.1388 18.6415 19.5996 23.8789 19.3857C26.4825 19.2777 29.0958 20.2899 31.049 22.1598C33.0822 24.1054 34.2068 26.7153 34.2154 29.5056H34.2144Z" fill="white"/>
    <path d="M25.896 3.25586C24.4927 3.30123 23.2429 3.87917 22.3237 5.10094C21.8127 5.78043 21.507 6.55065 21.4174 7.39866C21.2283 9.19837 21.8268 10.7043 23.1965 11.872C24.6753 13.1327 26.7774 13.2569 28.4237 12.2328C29.5698 11.5188 30.2709 10.4817 30.5517 9.17461C30.892 7.59527 30.5701 6.14663 29.5428 4.89137C28.6354 3.78194 27.4256 3.27963 25.896 3.25586Z" fill="white"/>
    <path d="M5.46739 6.78738C5.48684 7.82983 5.86275 9.09266 6.64159 10.2248C7.38587 11.3072 8.3397 12.1412 9.58412 12.6003C11.2574 13.2171 12.9004 13.122 14.4764 12.2902C15.8278 11.5773 16.7968 10.4916 17.4082 9.09266C17.8899 7.98971 18.0541 6.83707 17.9191 5.6423C17.7841 4.44321 17.3714 3.34999 16.6444 2.38532C15.8451 1.32342 14.8016 0.613685 13.5172 0.255038C12.0157 -0.165183 10.5498 -0.0711981 9.13474 0.574798C7.82876 1.1711 6.8652 2.1401 6.20087 3.4094C5.70072 4.36435 5.46091 5.38412 5.46631 6.78846L5.46739 6.78738Z" fill="white"/>
    <path fill-rule="evenodd" clip-rule="evenodd" d="M36.2342 10.0078C36.4855 10.0078 36.7034 10.1817 36.7591 10.4267L37.057 11.7365C37.1947 12.3423 37.6678 12.8153 38.2736 12.9531L39.5834 13.2509C39.8285 13.3066 40.0024 13.5245 40.0024 13.7758C40.0024 14.0271 39.8285 14.2449 39.5834 14.3007L38.2736 14.5985C37.6678 14.7362 37.1947 15.2093 37.057 15.8151L36.7591 17.1248C36.7034 17.3699 36.4855 17.5437 36.2342 17.5437C35.9829 17.5437 35.765 17.3699 35.7093 17.1248L35.4115 15.8151C35.2737 15.2093 34.8006 14.7362 34.1948 14.5985L32.885 14.3007C32.64 14.2449 32.4661 14.0271 32.4661 13.7758C32.4661 13.5245 32.64 13.3066 32.885 13.2509L34.1948 12.9531C34.8006 12.8153 35.2737 12.3423 35.4115 11.7365L35.7093 10.4267C35.765 10.1817 35.9829 10.0078 36.2342 10.0078Z" fill="white"/>
  </g>
</svg>
